<?xml version="1.0" encoding="UTF-8"?><svg version="1.1" width="13px" height="13px" viewBox="0 0 13.0 13.0" xmlns="http://www.w3.org/2000/svg" xmlns:xlink="http://www.w3.org/1999/xlink"><defs><clipPath id="i0"><path d="M885,0 L885,885 L0,885 L0,0 L885,0 Z"></path></clipPath><clipPath id="i1"><path d="M7.8125,0 C8.33026695,-9.51122462e-17 8.75,0.419733047 8.75,0.9375 L8.75,6.249 L14.0625,6.25 C14.580267,6.25 15,6.66973305 15,7.1875 L15,7.8125 C15,8.33026695 14.580267,8.75 14.0625,8.75 L8.75,8.749 L8.75,14.0625 C8.75,14.580267 8.33026695,15 7.8125,15 L7.1875,15 C6.66973305,15 6.25,14.580267 6.25,14.0625 L6.25,8.749 L0.9375,8.75 C0.419733047,8.75 0,8.33026695 0,7.8125 L0,7.1875 C0,6.66973305 0.419733047,6.25 0.9375,6.25 L6.25,6.249 L6.25,0.9375 C6.25,0.419733047 6.66973305,9.51122462e-17 7.1875,0 L7.8125,0 Z"></path></clipPath></defs><g transform="translate(-705.0 -270.0)"><g clip-path="url(#i0)"><g transform="translate(132.0 242.0)"><g transform="translate(30.0 20.413333333333405)"><g transform="translate(549.6066017177982 3.583823954191729) rotate(44.99999999999999)"><g clip-path="url(#i1)"><polygon points="0,0 15,0 15,15 0,15 0,0" stroke="none" fill="#A5ABB1"></polygon></g></g></g></g></g></g></svg>