<?xml version="1.0" encoding="UTF-8"?><svg version="1.1" width="30px" height="30px" viewBox="0 0 30.0 30.0" xmlns="http://www.w3.org/2000/svg" xmlns:xlink="http://www.w3.org/1999/xlink"><defs><clipPath id="i0"><path d="M885,0 L885,885 L0,885 L0,0 L885,0 Z"></path></clipPath><clipPath id="i1"><path d="M28,0 C29.1045695,-4.2495073e-16 30,0.8954305 30,2 L30,27.2 C30,28.3045695 29.1045695,29.2 28,29.2 L2,29.2 C0.8954305,29.2 -3.0881846e-16,28.3045695 0,27.2 L0,2 C-1.3527075e-16,0.8954305 0.8954305,-1.91384796e-17 2,0 L28,0 Z"></path></clipPath><clipPath id="i2"><path d="M4.77441406,0 C5.86970208,0 6.82927569,0.704492038 7.11653646,1.71952059 L18.0989583,1.71952059 C18.4585187,1.71952059 18.75,1.99944173 18.75,2.34474195 C18.75,2.69004217 18.4585187,2.96996331 18.0989583,2.96996331 L7.11653646,2.96996331 C6.82927569,3.98499186 5.86970208,4.6894839 4.77441406,4.6894839 C3.67912605,4.6894839 2.71955244,3.98499186 2.43229167,2.96996331 L0.651041667,2.96996331 C0.291481283,2.96996331 0,2.69004217 0,2.34474195 C0,1.99944173 0.291481283,1.71952059 0.651041667,1.71952059 L2.43229167,1.71952059 C2.71955244,0.704492038 3.67912605,0 4.77441406,0 Z M4.77408854,1.25060457 C4.14515533,1.25129366 3.63548318,1.74075222 3.63476563,2.34474195 C3.63476563,2.94901734 4.14485787,3.43887934 4.77408854,3.43887934 C5.40331921,3.43887934 5.91341146,2.94901734 5.91341146,2.34474195 C5.91341146,1.74046656 5.40331921,1.25060457 4.77408854,1.25060457 Z"></path></clipPath><clipPath id="i3"><path d="M13.9759115,0 C15.0713349,0 16.0309154,0.70484474 16.3177083,1.72013004 L18.0989583,1.72013004 C18.4585187,1.72013004 18.75,2.00005118 18.75,2.3453514 C18.75,2.69065163 18.4585187,2.97057277 18.0989583,2.97057277 L16.3177083,2.97057277 C16.0309154,3.98585807 15.0713349,4.69070281 13.9759115,4.69070281 C12.880488,4.69070281 11.9209075,3.98585807 11.6341146,2.97057277 L0.651041667,2.97057277 C0.291481283,2.97057277 0,2.69065163 0,2.3453514 C0,2.00005118 0.291481283,1.72013004 0.651041667,1.72013004 L11.6341146,1.72013004 C11.9209075,0.70484474 12.880488,0 13.9759115,0 Z M13.9759115,1.25121402 C13.3466808,1.25121402 12.8365885,1.74107601 12.8365885,2.3453514 C12.8365885,2.9496268 13.3466808,3.43948879 13.9759115,3.43948879 C14.6048447,3.4387997 15.1145168,2.94934113 15.1152344,2.3453514 C15.1152344,1.74107601 14.6051421,1.25121402 13.9759115,1.25121402 Z"></path></clipPath><clipPath id="i4"><path d="M4.77441406,0 C5.86970208,0 6.82927569,0.704492038 7.11653646,1.71952059 L18.046518,1.71952059 C18.4060784,1.71952059 18.6975597,1.99944173 18.6975597,2.34474195 C18.6975597,2.69004217 18.4060784,2.96996331 18.046518,2.96996331 L7.11653646,2.96996331 C6.82927569,3.98499186 5.86970208,4.6894839 4.77441406,4.6894839 C3.67912605,4.6894839 2.71955244,3.98499186 2.43229167,2.96996331 L0.651041667,2.96996331 C0.291481283,2.96996331 0,2.69004217 0,2.34474195 C0,1.99944173 0.291481283,1.71952059 0.651041667,1.71952059 L2.43229167,1.71952059 C2.71955244,0.704492038 3.67912605,0 4.77441406,0 Z M4.77408854,1.25060457 C4.14485787,1.25060457 3.63476563,1.74046656 3.63476563,2.34474195 C3.63476563,2.94901734 4.14485787,3.43887934 4.77408854,3.43887934 C5.40287333,3.43784682 5.9123363,2.94858914 5.91341146,2.34474195 C5.91341146,1.74046656 5.40331921,1.25060457 4.77408854,1.25060457 Z"></path></clipPath></defs><g transform="translate(-162.0 -262.0)"><g clip-path="url(#i0)"><g transform="translate(132.0 242.0)"><g transform="translate(30.0 20.413333333333405)"><g clip-path="url(#i1)"><polygon points="0,0 30,0 30,29.2 0,29.2 0,0" stroke="none" fill="#26262A"></polygon></g><g transform="translate(6.0 7.586666666666588)"><g clip-path="url(#i2)"><polygon points="0,0 18.75,0 18.75,4.6894839 0,4.6894839 0,0" stroke="none" fill="#FFFFFF"></polygon></g><g transform="translate(0.0 5.15464859524187)"><g clip-path="url(#i3)"><polygon points="0,0 18.75,0 18.75,4.69070281 0,4.69070281 0,0" stroke="none" fill="#FFFFFF"></polygon></g></g><g transform="translate(0.0 10.3105160986022)"><g clip-path="url(#i4)"><polygon points="0,0 18.6975597,0 18.6975597,4.6894839 0,4.6894839 0,0" stroke="none" fill="#FFFFFF"></polygon></g></g></g></g></g></g></g></svg>