<?xml version="1.0" encoding="UTF-8"?><svg version="1.1" width="24px" height="18px" viewBox="0 0 24.0 18.0" xmlns="http://www.w3.org/2000/svg" xmlns:xlink="http://www.w3.org/1999/xlink"><defs><clipPath id="i0"><path d="M1280,0 L1280,957 L0,957 L0,0 L1280,0 Z"></path></clipPath><clipPath id="i1"><path d="M14,3.757964e-07 C16.618,3.757964e-07 18.748,2.28276833 18.959,5.16857357 L20.716,3.17382398 C20.75,3.13557159 20.787,3.09844428 20.826,3.06581724 C21.43,2.55391026 22.227,2.47403028 22.903,2.85430403 C23.58,3.23570285 24,4.00075063 24,4.85242883 L24,13.0856931 C24,13.9351211 23.58,14.701294 22.903,15.0815677 C22.619,15.2413277 22.316,15.3189575 22.013,15.3189575 C21.593,15.3189575 21.177,15.1681981 20.825,14.8711796 C20.787,14.8385525 20.752,14.8048004 20.718,14.7676731 L18.962,12.7942999 C18.768,15.6969812 16.629,18.0000004 14,18.0000004 L5,18.0000004 C2.243,18.0000004 0,15.4764674 0,12.3746487 L0,5.62422703 C0,2.5224083 2.243,-0.00112431843 5,3.757964e-07 Z M14,2.24901622 L5,2.24901622 C3.346,2.24901622 2,3.7633608 2,5.62422703 L2,12.3746487 C2,14.2355149 3.346,15.7498595 5,15.7498595 L14,15.7498595 C15.654,15.7498595 17,14.2355149 17,12.3746487 L17,5.62422703 C17,3.7633608 15.654,2.24901622 14,2.24901622 Z M22,4.91093248 L19,8.31764526 L19,9.65422874 L22.025,13.0541911 L22,4.91093248 Z"></path></clipPath><linearGradient id="i2" x1="-1.57388331e-15px" y1="9px" x2="24px" y2="9px" gradientUnits="userSpaceOnUse"><stop stop-color="#FFFFFF" offset="0%"></stop><stop stop-color="#FFFFFF" offset="100%"></stop></linearGradient></defs><g transform="translate(-1170.0 -835.0)"><g clip-path="url(#i0)"><g transform="translate(916.0 818.0)"><g transform="translate(241.0 0.0)"><g transform="translate(13.0 17.000000000000227)"><g clip-path="url(#i1)"><polygon points="0,-1.0504423e-15 24,-1.0504423e-15 24,18.0000004 0,18.0000004 0,-1.0504423e-15" stroke="none" fill="url(#i2)"></polygon></g></g></g></g></g></g></svg>