<?xml version="1.0" encoding="UTF-8"?>
<svg width="100px" height="129px" viewBox="0 0 100 129" version="1.1" xmlns="http://www.w3.org/2000/svg" xmlns:xlink="http://www.w3.org/1999/xlink">
    <title>Group 2</title>
    <defs>
        <linearGradient x1="-6.55784712e-15%" y1="50%" x2="100%" y2="50%" id="linearGradient-1">
            <stop stop-color="#9725FF" offset="0%"></stop>
            <stop stop-color="#401BFF" offset="100%"></stop>
        </linearGradient>
        <linearGradient x1="73.2398829%" y1="77.8776649%" x2="33.656765%" y2="22.6022065%" id="linearGradient-2">
            <stop stop-color="#FFFFFF" offset="0%"></stop>
            <stop stop-color="#FFFFFF" stop-opacity="0.1" offset="53.7133469%"></stop>
            <stop stop-color="#522BBF" stop-opacity="0.6" offset="100%"></stop>
        </linearGradient>
        <linearGradient x1="25.6741334%" y1="76.1347632%" x2="66.8104155%" y2="16.9281935%" id="linearGradient-3">
            <stop stop-color="#FFFFFF" offset="0%"></stop>
            <stop stop-color="#FFFFFF" stop-opacity="0.1" offset="53.7133469%"></stop>
            <stop stop-color="#522BBF" stop-opacity="0.6" offset="100%"></stop>
        </linearGradient>
    </defs>
    <g id="Brands" stroke="none" stroke-width="1" fill="none" fill-rule="evenodd">
        <g id="Logo-Dark-Copy-3" fill-rule="nonzero">
            <g id="Group">
                <rect id="Rectangle" fill="url(#linearGradient-1)" x="0" y="0" width="100" height="129" rx="50"></rect>
                <g id="Varlık-1" transform="translate(15.000000, 40.506000)">
                    <path d="M2.32064838,38.8265963 C-0.773549461,34.8115006 -0.773549461,28.3040981 2.32064838,24.2915878 L18.7181038,3.0113218 C21.8123016,-1.00377393 26.8271735,-1.00377393 29.9193789,3.0113218 L35,9.60404179 L40.0806211,3.0113218 C43.1748189,-1.00377393 48.1896908,-1.00377393 51.2818962,3.0113218 L67.6793516,24.2890024 C70.7735495,28.3040981 70.7735495,34.8115006 67.6793516,38.8240109 L63.1366787,44.7186782 C60.0424808,48.7311886 55.027609,48.7311886 51.9354035,44.7186782 L46.2690168,37.3658564 L40.60263,44.7186782 C37.5084321,48.7337739 32.4935603,48.7337739 29.4013548,44.7186782 L23.7349681,37.3658564 L18.0685813,44.7186782 C14.9743834,48.7337739 9.95951158,48.7337739 6.86730613,44.7186782 L2.32463318,38.8240109 L2.32064838,38.8265963 Z" id="Path" fill="#FFFFFF"></path>
                    <path d="M46.2690168,37.3658564 L56.4123273,24.2036848 C59.5065251,20.1885891 64.521397,20.1885891 67.6136024,24.2036848 L67.6793516,24.2890024 C70.7735495,28.3040981 70.7735495,34.8115006 67.6793516,38.8240109 L63.1366787,44.7186782 C60.0424808,48.7311886 55.027609,48.7311886 51.9354035,44.7186782 L46.2690168,37.3658564 L46.2690168,37.3658564 Z" id="Path" fill="url(#linearGradient-2)" style="mix-blend-mode: multiply;"></path>
                    <path d="M13.5896651,24.2036848 C10.4954673,20.1885891 5.48059544,20.1885891 2.38839,24.2036848 L2.32264078,24.2890024 C-0.771557061,28.3040981 -0.771557061,34.8115006 2.32264078,38.8240109 L6.86531373,44.7186782 C9.95951158,48.7311886 14.9743834,48.7311886 18.0665889,44.7186782 L23.7329757,37.3658564 L13.5896651,24.2036848 Z" id="Path" fill="url(#linearGradient-3)" style="mix-blend-mode: multiply;"></path>
                </g>
            </g>
        </g>
    </g>
</svg>