<?xml version="1.0" encoding="UTF-8"?>
<svg width="40px" height="40px" viewBox="0 0 40 40" version="1.1" xmlns="http://www.w3.org/2000/svg" xmlns:xlink="http://www.w3.org/1999/xlink">
    <title>binance@2x</title>
    <g id="Browser-UI's" stroke="none" stroke-width="1" fill="none" fill-rule="evenodd">
        <g id="Browser-Dark-Theme---Add-more" transform="translate(-904.000000, -409.000000)" fill="#FFFFFF" fill-rule="nonzero">
            <g id="Group-2" transform="translate(157.000000, 178.000000)">
                <g id="Binance" transform="translate(692.000000, 214.000000)">
                    <g id="binance" transform="translate(55.000000, 17.000000)">
                        <path d="M39.9997336,20.0394667 C39.962044,20.07 39.9211581,20.0974667 39.8870643,20.1316 C38.4736372,21.5456 37.0608761,22.9602667 35.6478485,24.3746667 C35.6011027,24.4214667 35.5530252,24.4668 35.5179991,24.5006667 C34.0168072,22.9977333 32.5228069,21.502 31.0446549,20.022 C32.5196106,18.5454667 34.0130782,17.0504 35.5198636,15.5418667 C35.5358451,15.5558667 35.578196,15.5889333 35.6158856,15.6266667 C37.0639392,17.0769333 38.51146,18.5276 39.9595136,19.9778667 C39.970967,19.9893333 39.9864158,19.9966667 40,20.006 C39.9997336,20.0170667 39.9997336,20.0282667 39.9997336,20.0394667 L39.9997336,20.0394667 Z" id="Path"></path>
                        <path d="M12.207173,16.7714667 C10.7023852,15.2652 9.21078216,13.772 7.71611597,12.2757333 C7.76672393,12.1852 19.7829185,0.136 19.9611118,0 C24.0523659,4.0956 28.1418887,8.1896 32.2351406,12.2872 C32.1849321,12.3777333 27.977546,16.6094667 27.7568687,16.7804 C25.1704023,14.1909333 22.5820715,11.5996 19.9777591,8.99226667 C17.3761104,11.5968 14.7879127,14.1878667 12.207173,16.7714667 Z" id="Path"></path>
                        <path d="M12.1910584,23.2414667 C14.788179,25.8414667 17.3733136,28.4296 19.9704343,31.0296 C20.2788765,30.7482667 20.5558885,30.4529333 20.8431553,30.1685333 C21.1321534,29.8824 21.4183547,29.5934667 21.7057547,29.3057333 C21.9931546,29.018 22.2805546,28.7302667 22.5679545,28.4425333 C22.8553545,28.1548 23.1427544,27.8670667 23.4301544,27.5793333 C23.7215497,27.2877333 24.0128118,26.996 24.3042071,26.7044 C24.5916071,26.4166667 24.879007,26.1289333 25.166407,25.8412 C25.4538069,25.5534667 25.7412069,25.2657333 26.0286068,24.978 C26.3160068,24.6902667 26.6034067,24.4025333 26.8908067,24.1148 C27.1776739,23.8276 27.4646743,23.5405333 27.767523,23.2373333 C29.2725771,24.7422667 30.7676429,26.2372 32.2485916,27.7178667 C28.1482813,31.8228 24.0562281,35.9192 19.9800232,40 C15.9052832,35.9205333 11.8133632,31.8237333 7.70959021,27.7152 C9.18654361,26.2405333 10.6828079,24.7469333 12.1910584,23.2414667 L12.1910584,23.2414667 Z" id="Path"></path>
                        <path d="M19.9793573,24.5468 C18.472705,23.0384 16.9549989,21.5190667 15.4492788,20.0117333 C16.9539334,18.5053333 18.4713732,16.9861333 19.9752287,15.4806667 L24.505174,20.0158667 C22.9998535,21.5228 21.4822806,23.0422667 19.9793573,24.5468 L19.9793573,24.5468 Z" id="Path"></path>
                        <path d="M0,20.0030667 L4.45336743,15.5445333 L8.91152929,20.0078667 C7.43311092,21.4882667 5.93897745,22.9845333 4.45869458,24.4668 C2.9866688,22.9932 1.49240215,21.4972 0,20.0030667 Z" id="Path"></path>
                    </g>
                </g>
            </g>
        </g>
    </g>
</svg>