<?xml version="1.0" encoding="UTF-8"?>
<svg width="100px" height="18px" viewBox="0 0 100 18" version="1.1" xmlns="http://www.w3.org/2000/svg" xmlns:xlink="http://www.w3.org/1999/xlink">
    <title>Coinbase@2x</title>
    <g id="Browser-UI's" stroke="none" stroke-width="1" fill="none" fill-rule="evenodd">
        <g id="Browser-Dark-Theme---Add-more" transform="translate(-233.000000, -543.000000)" fill="#FFFFFF" fill-rule="nonzero">
            <g id="Group-2" transform="translate(157.000000, 178.000000)">
                <g id="Coinbase" transform="translate(51.000000, 324.000000)">
                    <g transform="translate(25.000000, 41.000000)" id="Shape">
                        <path d="M20.1826368,5.02525535 C16.5498711,5.02525535 13.7113758,7.80405508 13.7113758,11.5240612 C13.7113758,15.2440673 16.4781598,17.9990853 20.1826368,17.9990853 C23.8871138,17.9990853 26.7020079,15.1965039 26.7020079,11.5002795 C26.7020079,7.82783678 23.9352238,5.02525535 20.1826368,5.02525535 Z M20.2071457,15.3181564 C18.1384118,15.3181564 16.6224901,13.6991717 16.6224901,11.5249759 C16.6224901,9.32608364 18.1139029,7.70801362 20.1826368,7.70801362 C22.2758796,7.70801362 23.7908936,9.35078002 23.7908936,11.5249759 C23.7908936,13.6991717 22.2758796,15.3181564 20.2071457,15.3181564 Z M27.4953705,7.85253316 L29.2999528,7.85253316 L29.2999528,17.7585243 L32.1865582,17.7585243 L32.1865582,5.26673103 L27.4953705,5.26673103 L27.4953705,7.85253316 Z M6.44675212,7.70709894 C7.96267383,7.70709894 9.16542609,8.64921998 9.62201808,10.0505107 L12.6774627,10.0505107 C12.1237428,7.05493165 9.67012817,5.02525535 6.47126103,5.02525535 C2.83849533,5.02525535 0,7.80405508 0,11.5249759 C0,15.2458966 2.76678407,18 6.47126103,18 C9.59841691,18 12.1001416,15.9703237 12.6538615,12.9500483 L9.62201808,12.9500483 C9.18902727,14.351339 7.98627501,15.3181564 6.47035329,15.3181564 C4.37711049,15.3181564 2.9102066,13.6991717 2.9102066,11.5249759 C2.91111434,9.32608364 4.35441705,7.70709894 6.44675212,7.70709894 Z M82.3426891,10.3166828 L80.2258451,10.0029473 C79.2155332,9.85842777 78.4938818,9.51999593 78.4938818,8.72239443 C78.4938818,7.85253316 79.4324825,7.41805986 80.706946,7.41805986 C82.1021386,7.41805986 82.9926292,8.02174907 83.1850695,9.01234819 L85.9754548,9.01234819 C85.6622853,6.49972051 83.7378817,5.02617003 80.779565,5.02617003 C77.7241204,5.02617003 75.7034966,6.59667666 75.7034966,8.81935058 C75.7034966,10.9450683 77.026978,12.1780578 79.6966341,12.5640531 L81.8134781,12.8777885 C82.8482989,13.022308 83.42562,13.4339143 83.42562,14.2068195 C83.42562,15.1974186 82.4153081,15.6081102 81.0201155,15.6081102 C79.3117534,15.6081102 78.3495516,14.9074648 78.2052213,13.8446059 L75.366726,13.8446059 C75.6317853,16.2849738 77.53168,18 80.9956066,18 C84.1472713,18 86.2396064,16.5502312 86.2396064,14.0613852 C86.2396064,11.8387113 84.7245924,10.6788963 82.3426891,10.3166828 Z M30.7432555,0.120737842 C29.6848335,0.120737842 28.8905632,0.89364297 28.8905632,1.95650185 C28.8905632,3.01936074 29.6839258,3.79226587 30.7432555,3.79226587 C31.8016775,3.79226587 32.5959479,3.01936074 32.5959479,1.95650185 C32.5959479,0.89364297 31.8016775,0.120737842 30.7432555,0.120737842 Z M73.1055517,9.54377763 C73.1055517,6.83815235 71.4698086,5.02617003 68.0058821,5.02617003 C64.734396,5.02617003 62.9062126,6.69363281 62.544933,9.25473855 L65.4079373,9.25473855 C65.5522675,8.26413944 66.322029,7.44275624 67.957772,7.44275624 C69.4255837,7.44275624 70.147235,8.09492352 70.147235,8.89252503 C70.147235,9.93160222 68.8237537,10.1968596 67.1880106,10.3660755 C64.9749464,10.6075512 62.2326713,11.3804563 62.2326713,14.2799939 C62.2326713,16.5273642 63.8929233,17.9762183 66.5389783,17.9762183 C68.6077121,17.9762183 69.9066846,17.106357 70.5566247,15.728848 C70.6528448,16.9609228 71.5669366,17.7585243 72.8423078,17.7585243 L74.526161,17.7585243 L74.526161,15.1736369 L73.1064595,15.1736369 L73.1064595,9.54377763 L73.1055517,9.54377763 Z M70.2670564,12.6847909 C70.2670564,14.3522537 68.8237537,15.5843285 67.0672815,15.5843285 C65.9843506,15.5843285 65.0702589,15.1251588 65.0702589,14.1592561 C65.0702589,12.9271813 66.5380705,12.5887494 67.885153,12.4442299 C69.1841255,12.323492 69.9057768,12.0335383 70.2670564,11.4774125 L70.2670564,12.6847909 Z M54.9435387,5.02525535 C53.3313968,5.02525535 51.9843143,5.70211901 51.0221125,6.83723766 L51.0221125,0 L48.1355071,0 L48.1355071,17.7585243 L50.9740024,17.7585243 L50.9740024,16.1157579 C51.9362042,17.2993546 53.3077957,18 54.9435387,18 C58.4074652,18 61.029919,15.2458966 61.029919,11.5249759 C61.029919,7.80405508 58.3593551,5.02525535 54.9435387,5.02525535 Z M54.5105479,15.3181564 C52.441814,15.3181564 50.9258923,13.6991717 50.9258923,11.5249759 C50.9258923,9.35078002 52.4654152,7.70801362 54.5341491,7.70801362 C56.6273919,7.70801362 58.0942958,9.32699832 58.0942958,11.5249759 C58.0942958,13.6991717 56.5792818,15.3181564 54.5105479,15.3181564 Z M41.2312552,5.02525535 C39.3549617,5.02525535 38.1277005,5.79816048 37.4060492,6.88571574 L37.4060492,5.26673103 L34.5430449,5.26673103 L34.5430449,17.7576096 L37.4296503,17.7576096 L37.4296503,10.96885 C37.4296503,9.05991158 38.6324026,7.70709894 40.4124759,7.70709894 C42.0727279,7.70709894 43.106641,8.89069567 43.106641,10.6066365 L43.106641,17.7585243 L45.9932468,17.7585243 L45.9932468,10.3898572 C45.9941542,7.24792926 44.38292,5.02525535 41.2312552,5.02525535 Z M100,11.1142843 C100,7.5387977 97.4020551,5.02617003 93.9136197,5.02617003 C90.2091427,5.02617003 87.4904688,7.82875146 87.4904688,11.5249759 C87.4904688,15.4151126 90.4015831,18 93.9617298,18 C96.9690643,18 99.3264587,16.2117994 99.927381,13.67539 L96.9200465,13.67539 C96.4870557,14.786727 95.4286337,15.4151126 94.0089321,15.4151126 C92.1562398,15.4151126 90.7610472,14.2552975 90.4487854,12.2256212 L99.9990923,12.2256212 L99.9990923,11.1142843 L100,11.1142843 Z M90.6176246,10.1474668 C91.0751244,8.4077443 92.3740968,7.5625794 93.8655096,7.5625794 C95.5012527,7.5625794 96.752115,8.50470044 97.0407756,10.1474668 L90.6176246,10.1474668 Z"></path>
                    </g>
                </g>
            </g>
        </g>
    </g>
</svg>