<?xml version="1.0" encoding="UTF-8"?>
<svg width="40px" height="28px" viewBox="0 0 40 28" version="1.1" xmlns="http://www.w3.org/2000/svg" xmlns:xlink="http://www.w3.org/1999/xlink">
    <title>icon@2x</title>
    <g id="Browser-UI's" stroke="none" stroke-width="1" fill="none" fill-rule="evenodd">
        <g id="Browser-Dark-Theme---Add-more" transform="translate(-424.000000, -423.000000)" fill="#FFFFFF" fill-rule="nonzero">
            <g id="Group-2" transform="translate(157.000000, 178.000000)">
                <g id="Discord" transform="translate(212.000000, 214.000000)">
                    <path d="M59.9671579,34.5233763 C64.9386795,30.8238731 69.5467619,31.0013605 69.5467619,31.0013605 L69.9183377,31.375748 C63.834801,32.8594318 61.0764609,35.6382192 61.0764609,35.6382192 C61.358533,35.5772079 73.6422325,28.3307296 88.5269626,35.8212531 C88.5269626,35.8212531 85.7631981,33.2227264 80.0539494,31.5587819 L80.5584245,31.0512788 C81.3476841,31.0540521 85.5245216,31.2038071 89.9942802,34.5455623 C89.9942802,34.5455623 94.9956364,43.2812709 94.9956364,54.013713 C94.8301902,53.8084931 91.8928428,58.6339322 84.3338517,58.8003267 C84.3338517,58.8003267 83.0536781,57.3194161 82.1423681,56.0270858 C86.5633066,54.7292091 88.2177682,52.1334557 88.2177682,52.1334557 C79.6118555,57.6743909 72.0691379,56.8091397 63.0455414,53.0652646 C62.9614622,53.0652646 62.923491,53.0264392 62.8800953,52.9820674 L62.8800953,52.9654279 C62.8366996,52.9238293 62.7987283,52.8822307 62.7146491,52.8822307 L62.5519152,52.8822307 C61.9986198,52.5106164 61.6297562,52.3275825 61.6297562,52.3275825 C61.6297562,52.3275825 63.2815056,54.923336 67.526149,56.2212127 C66.4114216,57.5218626 65.3075431,59 65.3075431,59 C57.7512642,58.8169661 54.9956364,53.991527 54.9956364,53.991527 C54.9956364,43.2424455 59.9671579,34.5233763 59.9671579,34.5233763 L59.9671579,34.5233763 Z M81.1524034,50.6608648 C83.0808005,50.6608648 84.6511829,48.9969203 84.6511829,46.9447221 C84.6511829,44.9063901 83.0889372,43.2424455 81.1524034,43.2424455 L81.1524034,43.2507653 C79.232143,43.2507653 77.6590484,44.9091633 77.6536239,46.9613615 C77.6536239,48.9969203 79.2240063,50.6608648 81.1524034,50.6608648 Z M68.6273152,50.6608648 C70.5557123,50.6608648 72.1260947,48.9969203 72.1260947,46.9447221 C72.1260947,44.9063901 70.5665612,43.2424455 68.6381642,43.2424455 L68.6273152,43.2507653 C66.6989182,43.2507653 65.1285357,44.9091633 65.1285357,46.9613615 C65.1285357,48.9969203 66.6989182,50.6608648 68.6273152,50.6608648 L68.6273152,50.6608648 Z" id="icon"></path>
                </g>
            </g>
        </g>
    </g>
</svg>