<?xml version="1.0" encoding="UTF-8"?>
<svg width="13px" height="13px" viewBox="0 0 13 13" version="1.1" xmlns="http://www.w3.org/2000/svg" xmlns:xlink="http://www.w3.org/1999/xlink">
    <title>+@2x</title>
    <g id="Browser-UI's" stroke="none" stroke-width="1" fill="none" fill-rule="evenodd">
        <g id="Browser-White-Theme---Add-more" transform="translate(-1068.000000, -206.000000)" fill="#A5ABB2" fill-rule="nonzero">
            <g id="Group-2" transform="translate(157.000000, 178.000000)">
                <g id="Settings" transform="translate(30.000000, 20.413333)">
                    <path d="M887.919102,6.69042567 C888.436869,6.69042567 888.856602,7.11015872 888.856602,7.62792567 L888.856602,12.9394257 L894.169102,12.9404257 C894.686869,12.9404257 895.106602,13.3601587 895.106602,13.8779257 L895.106602,14.5029257 C895.106602,15.0206926 894.686869,15.4404257 894.169102,15.4404257 L888.856602,15.4394257 L888.856602,20.7529257 C888.856602,21.2706926 888.436869,21.6904257 887.919102,21.6904257 L887.294102,21.6904257 C886.776335,21.6904257 886.356602,21.2706926 886.356602,20.7529257 L886.356602,15.4394257 L881.044102,15.4404257 C880.526335,15.4404257 880.106602,15.0206926 880.106602,14.5029257 L880.106602,13.8779257 C880.106602,13.3601587 880.526335,12.9404257 881.044102,12.9404257 L886.356602,12.9394257 L886.356602,7.62792567 C886.356602,7.11015872 886.776335,6.69042567 887.294102,6.69042567 L887.919102,6.69042567 Z" id="+" transform="translate(887.606602, 14.190426) rotate(45.000000) translate(-887.606602, -14.190426) "></path>
                </g>
            </g>
        </g>
    </g>
</svg>