<?xml version="1.0" encoding="UTF-8"?>
<svg width="40px" height="40px" viewBox="0 0 40 40" version="1.1" xmlns="http://www.w3.org/2000/svg" xmlns:xlink="http://www.w3.org/1999/xlink">
    <title>facebook@2x</title>
    <g id="Browser-UI's" stroke="none" stroke-width="1" fill="none" fill-rule="evenodd">
        <g id="Browser-Dark-Theme---Add-more" transform="translate(-423.000000, -675.000000)" fill-rule="nonzero">
            <g id="Group-2" transform="translate(157.000000, 178.000000)">
                <g id="Discord-Copy" transform="translate(211.000000, 478.000000)">
                    <g id="facebook" transform="translate(55.000000, 19.000000)">
                        <path d="M35,0 L5,0 C2.2425,0 0,2.2425 0,5 L0,35 C0,37.7575 2.2425,40 5,40 L35,40 C37.7575,40 40,37.7575 40,35 L40,5 C40,2.2425 37.7575,0 35,0 Z" id="Path" fill="#1976D2"></path>
                        <path d="M33.75,20 L27.5,20 L27.5,15 C27.5,13.62 28.62,13.75 30,13.75 L32.5,13.75 L32.5,7.5 L27.5,7.5 L27.5,7.5 C23.3575,7.5 20,10.8575 20,15 L20,20 L15,20 L15,26.25 L20,26.25 L20,40 L27.5,40 L27.5,26.25 L31.25,26.25 L33.75,20 Z" id="Path" fill="#FAFAFA"></path>
                    </g>
                </g>
            </g>
        </g>
    </g>
</svg>