<?xml version="1.0" encoding="UTF-8"?>
<svg width="16px" height="16px" viewBox="0 0 16 16" version="1.1" xmlns="http://www.w3.org/2000/svg" xmlns:xlink="http://www.w3.org/1999/xlink">
    <title>+@2x</title>
    <g id="Browser-UI's" stroke="none" stroke-width="1" fill="none" fill-rule="evenodd">
        <g id="Browser-Dark-Theme---Add-more" transform="translate(-194.000000, -205.000000)" fill="#A5ABB2" fill-rule="nonzero">
            <g id="Group-2" transform="translate(157.000000, 178.000000)">
                <g id="Settings" transform="translate(30.000000, 20.413333)">
                    <path d="M14.9191017,6.69326838 C15.4368687,6.69326838 15.8566017,7.11300143 15.8566017,7.63076838 L15.8566017,12.9422684 L21.1691017,12.9432684 C21.6868687,12.9432684 22.1066017,13.3630014 22.1066017,13.8807684 L22.1066017,14.5057684 C22.1066017,15.0235353 21.6868687,15.4432684 21.1691017,15.4432684 L15.8566017,15.4422684 L15.8566017,20.7557684 C15.8566017,21.2735353 15.4368687,21.6932684 14.9191017,21.6932684 L14.2941017,21.6932684 C13.7763348,21.6932684 13.3566017,21.2735353 13.3566017,20.7557684 L13.3566017,15.4422684 L8.04410172,15.4432684 C7.52633476,15.4432684 7.10660172,15.0235353 7.10660172,14.5057684 L7.10660172,13.8807684 C7.10660172,13.3630014 7.52633476,12.9432684 8.04410172,12.9432684 L13.3566017,12.9422684 L13.3566017,7.63076838 C13.3566017,7.11300143 13.7763348,6.69326838 14.2941017,6.69326838 L14.9191017,6.69326838 Z" id="+"></path>
                </g>
            </g>
        </g>
    </g>
</svg>