<?xml version="1.0" encoding="UTF-8"?>
<svg width="40px" height="38px" viewBox="0 0 40 38" version="1.1" xmlns="http://www.w3.org/2000/svg" xmlns:xlink="http://www.w3.org/1999/xlink">
    <title>reddit@2x</title>
    <g id="Browser-UI's" stroke="none" stroke-width="1" fill="none" fill-rule="evenodd">
        <g id="Browser-Dark-Theme---Add-more" transform="translate(-584.000000, -413.000000)" fill="#FFFFFF" fill-rule="nonzero">
            <g id="Group-2" transform="translate(157.000000, 178.000000)">
                <g id="Reddit" transform="translate(372.000000, 214.000000)">
                    <g id="reddit" transform="translate(55.000000, 21.000000)">
                        <path d="M35.5298145,14.5451332 C34.330529,14.5529079 33.1848791,15.0389401 32.3511538,15.8936528 C29.339791,13.79876 25.2846346,12.4502404 20.7894119,12.2879854 L23.1243092,1.70174574 L30.532698,3.40001511 C30.5239773,4.27908447 30.8691138,5.12532841 31.4916735,5.7513378 C32.1142333,6.37734719 32.96284,6.7314611 33.8495614,6.73525751 C35.5325228,6.76769369 36.9856199,5.5732955 37.2652586,3.9276662 C37.5448973,2.2820369 36.5667272,0.681565966 34.96594,0.165547075 C33.3651528,-0.350471816 31.6246119,0.373613853 30.8745677,1.86760644 L22.6624214,0.0251103745 C22.2379478,-0.0616770426 21.8223026,0.207137156 21.731372,0.627256839 L19.1855339,12.2988024 C14.7266804,12.4862971 10.71153,13.8312111 7.69289339,15.9297095 C6.85260273,15.0455354 5.68138247,14.5445411 4.45604209,14.5451332 C-0.231936915,14.5451332 -1.7667136,20.8730796 2.52484205,23.0364801 C2.3764978,23.7249926 2.30333818,24.4273356 2.30662736,25.1313729 C2.30662736,32.2417491 10.2641899,38 20.0402081,38 C29.8162264,38 37.8065211,32.2417491 37.8065211,25.1241615 C37.8131821,24.4055721 37.7251518,23.6891975 37.5446635,22.9932121 C41.7525702,20.8298116 40.2032459,14.5415275 35.5407252,14.5379219 L35.5298145,14.5451332 Z M9.31859285,23.4871885 C9.33263719,21.6708009 10.8250098,20.2073539 12.6571809,20.2132919 C14.489352,20.2192661 15.9720122,21.6923844 15.9740433,23.5088243 C15.9760703,25.3252642 14.4967048,26.8016346 12.6645515,26.8116139 C10.8162845,26.8056592 9.32058556,25.319586 9.31859285,23.4871885 L9.31859285,23.4871885 Z M27.3867695,31.4196569 C24.3172161,34.5061082 15.6577297,34.5061082 12.5881764,31.4196569 C12.3789821,31.2225652 12.2917369,30.9297999 12.3593052,30.6516429 C12.4268735,30.3734859 12.6389901,30.1521958 12.9157526,30.0711305 C13.1925152,29.9900651 13.491877,30.0615403 13.7010713,30.258632 C16.0432423,32.6744292 23.8189593,32.7176972 26.2666007,30.258632 C26.5931055,29.9746368 27.0873271,29.9960777 27.3875616,30.3072628 C27.6877962,30.6184478 27.6874469,31.1088924 27.3867695,31.4196569 L27.3867695,31.4196569 Z M27.3176682,26.8224309 C25.9483364,26.8326433 24.708503,26.0215628 24.1793701,24.7694032 C23.6502373,23.5172435 23.936696,22.0722225 24.9044617,21.111729 C25.8722273,20.1512355 27.3294581,19.8656698 28.5930416,20.3888978 C29.856625,20.9121258 30.6760787,22.1404271 30.6672637,23.4980055 C30.6711526,24.3799179 30.3194987,25.2268233 29.6904827,25.8504355 C29.0614667,26.4740478 28.2072226,26.8226806 27.3176682,26.8188252 L27.3176682,26.8224309 Z" id="icon"></path>
                    </g>
                </g>
            </g>
        </g>
    </g>
</svg>