<?xml version="1.0" encoding="UTF-8"?>
<svg width="40px" height="31px" viewBox="0 0 40 31" version="1.1" xmlns="http://www.w3.org/2000/svg" xmlns:xlink="http://www.w3.org/1999/xlink">
    <title>telegram@2x</title>
    <g id="Browser-UI's" stroke="none" stroke-width="1" fill="none" fill-rule="evenodd">
        <g id="Browser-Dark-Theme---Add-more" transform="translate(-744.000000, -420.000000)" fill="#FFFFFF" fill-rule="nonzero">
            <g id="Group-2" transform="translate(157.000000, 178.000000)">
                <g id="Minego-Telegram" transform="translate(532.000000, 214.000000)">
                    <g id="telegram" transform="translate(55.000000, 28.000000)">
                        <path d="M37.4312522,0.119698215 L36.7694098,0.358439895 L0.848094186,13.2324041 C0.324546454,13.3934446 -0.0235612017,13.8859309 0.00124493725,14.4304865 C0.0260510761,14.9750421 0.417508689,15.4341938 0.953552594,15.547475 L10.252075,18.0795837 L11.986684,23.1438011 L13.7212929,28.2080186 C13.9236005,28.7120408 14.3631736,29.0840959 14.895722,29.2020564 C15.4282703,29.3200169 15.9850167,29.1686486 16.3832086,28.7976382 L21.1870209,24.2832501 L30.6200937,30.6460776 C31.7728632,31.427414 33.4165597,30.8486463 33.711116,29.5608881 L39.9586175,2.10197762 C40.2640832,0.741873503 38.8240305,-0.375871635 37.4312522,0.119698215 L37.4312522,0.119698215 Z M32.8456297,6.21484565 L16.6159444,19.4107494 L15.8522801,20.0329247 C15.6845202,20.1652249 15.5749936,20.3571815 15.5468143,20.5682848 L15.375899,21.9717965 L14.9067909,25.9146515 C14.9148244,26.0145405 14.8399311,26.1019945 14.739512,26.1099856 C14.639093,26.1179767 14.5511748,26.0434788 14.5431412,25.9435899 L13.2230929,22.0043522 L11.8594066,17.9710647 C11.7404311,17.5970922 11.9052515,17.1917708 12.2521482,17.0052461 L29.1400395,7.37599837 L32.3183377,5.56734928 C32.7801728,5.29966921 33.2529174,5.88205422 32.8456297,6.21484565 L32.8456297,6.21484565 Z" id="icon"></path>
                    </g>
                </g>
            </g>
        </g>
    </g>
</svg>