<?xml version="1.0" encoding="UTF-8"?>
<svg width="40px" height="32px" viewBox="0 0 40 32" version="1.1" xmlns="http://www.w3.org/2000/svg" xmlns:xlink="http://www.w3.org/1999/xlink">
    <title>Icon@2x</title>
    <g id="Browser-UI's" stroke="none" stroke-width="1" fill="none" fill-rule="evenodd">
        <g id="Browser-Dark-Theme---Add-more" transform="translate(-264.000000, -419.000000)" fill="#FFFFFF" fill-rule="nonzero">
            <g id="Group-2" transform="translate(157.000000, 178.000000)">
                <g id="Twitter" transform="translate(52.000000, 214.000000)">
                    <path d="M90.2737986,32.0666589 C91.991607,31.0640974 93.2757123,29.4757936 93.8824545,27.6031296 C92.2746439,28.5423742 90.5153563,29.2038552 88.6807884,29.5589233 C86.3802625,27.1375029 82.8092832,26.3467946 79.6767167,27.5651861 C76.5441502,28.7835775 74.487116,31.7632653 74.4899929,35.0783413 C74.4842208,35.6966797 74.5482801,36.3137347 74.6809916,36.9181473 C68.080854,36.5990861 61.9311872,33.5284823 57.7715128,28.4750376 C55.5769738,32.1648129 56.6832057,36.8985053 60.2951336,39.2738989 C58.9964384,39.2394431 57.7252458,38.8978591 56.5889465,38.278004 L56.5889465,38.3659947 C56.5964826,42.2061812 59.3392235,45.5149018 63.1601138,46.2931588 C62.4585897,46.47456 61.7356682,46.5633289 61.0103627,46.5571309 C60.4881055,46.566626 59.9663173,46.5210374 59.4539266,46.4211453 C60.5422489,49.7046666 63.6141669,51.9573738 67.1223204,52.0445523 C64.2212667,54.2762694 60.6449228,55.4884969 56.9628162,55.4881892 C56.3067462,55.4936836 55.6510301,55.4562718 55,55.376201 C58.7544296,57.7585866 63.1306916,59.0173714 67.5977852,58.9998189 C82.6948085,58.9998189 90.9483897,46.6931166 90.9483897,36.0262414 C90.9483897,35.6702789 90.9483897,35.3263152 90.9199431,34.9823515 C92.5273187,33.8406276 93.9099097,32.4202527 95,30.7907934 C93.4951625,31.4376265 91.9033571,31.8673436 90.2737986,32.0666589 Z" id="Icon"></path>
                </g>
            </g>
        </g>
    </g>
</svg>