<?xml version="1.0" encoding="UTF-8"?>
<svg width="40px" height="29px" viewBox="0 0 40 29" version="1.1" xmlns="http://www.w3.org/2000/svg" xmlns:xlink="http://www.w3.org/1999/xlink">
    <title>youtube@2x</title>
    <g id="Browser-UI's" stroke="none" stroke-width="1" fill="none" fill-rule="evenodd">
        <g id="Browser-Dark-Theme---Add-more" transform="translate(-263.000000, -687.000000)" fill-rule="nonzero">
            <g id="Group-2" transform="translate(157.000000, 178.000000)">
                <g id="Twitter-Copy" transform="translate(51.000000, 478.000000)">
                    <g id="youtube" transform="translate(55.000000, 31.000000)">
                        <path d="M39.1758607,4.53776751 C38.714742,2.76342455 37.3637345,1.36480628 35.6504849,0.887013488 C32.5203101,0 19.9996108,0 19.9996108,0 C19.9996108,0 7.4792166,0 4.34904179,0.853201412 C2.66875097,1.33067822 1.2847846,2.76374053 0.82366599,4.53776751 C0,7.77866888 0,14.5 0,14.5 C0,14.5 0,21.2551432 0.82366599,24.4622325 C1.28508983,26.2362594 2.63579212,27.6351937 4.34934695,28.1129865 C7.51217545,29 19.9999159,29 19.9999159,29 C19.9999159,29 32.5203101,29 35.6504849,28.1467986 C37.3640397,27.6693218 38.714742,26.2703875 39.1761659,24.4963605 C40,21.2551432 40,14.534128 40,14.534128 C40,14.534128 40.0327907,7.77866888 39.1758607,4.53776751 Z" id="Path" fill="#FF0000"></path>
                        <polygon id="Path" fill="#FFFFFF" points="16.0131163 20.7094103 26.4247546 14.5 16.0131163 8.29058972"></polygon>
                    </g>
                </g>
            </g>
        </g>
    </g>
</svg>