<?xml version="1.0" encoding="UTF-8"?>
<svg width="165px" height="40px" viewBox="0 0 165 40" version="1.1" xmlns="http://www.w3.org/2000/svg" xmlns:xlink="http://www.w3.org/1999/xlink">
    <title>explore_minego</title>
    <defs>
        <linearGradient x1="-6.55784712e-15%" y1="50%" x2="100%" y2="50%" id="linearGradient-1">
            <stop stop-color="#9725FF" offset="0%"></stop>
            <stop stop-color="#401BFF" offset="100%"></stop>
        </linearGradient>
        <filter x="-5.5%" y="-22.5%" width="110.9%" height="145.0%" filterUnits="objectBoundingBox" id="filter-2">
            <feGaussianBlur stdDeviation="3" in="SourceGraphic"></feGaussianBlur>
        </filter>
        <linearGradient x1="79.0578515%" y1="70.2724322%" x2="29.5653319%" y2="30.0765268%" id="linearGradient-3">
            <stop stop-color="#FFFFFF" offset="0%"></stop>
            <stop stop-color="#FFFFFF" stop-opacity="0.1" offset="53.7133469%"></stop>
            <stop stop-color="#522BBF" stop-opacity="0.6" offset="100%"></stop>
        </linearGradient>
        <linearGradient x1="19.5842952%" y1="69.005007%" x2="71.0188046%" y2="25.9504264%" id="linearGradient-4">
            <stop stop-color="#FFFFFF" offset="0%"></stop>
            <stop stop-color="#FFFFFF" stop-opacity="0.1" offset="53.7133469%"></stop>
            <stop stop-color="#522BBF" stop-opacity="0.6" offset="100%"></stop>
        </linearGradient>
    </defs>
    <g id="Browser-UI's" stroke="none" stroke-width="1" fill="none" fill-rule="evenodd">
        <g id="Browser-Dark-Theme" transform="translate(-1042.000000, -184.000000)">
            <g id="Explore-Minego" transform="translate(1042.000000, 184.000000)">
                <rect id="Rectangle" fill="url(#linearGradient-1)" fill-rule="nonzero" filter="url(#filter-2)" x="0" y="0" width="165" height="40" rx="2"></rect>
                <rect id="Rectangle" fill="url(#linearGradient-1)" fill-rule="nonzero" x="0" y="0" width="165" height="40" rx="2"></rect>
                <g id="Varlık-1" transform="translate(14.000000, 14.000000)" fill-rule="nonzero">
                    <path d="M0.828802994,10.575021 C-0.276267665,9.48144788 -0.276267665,7.70905669 0.828802994,6.61618774 L6.68503707,0.820179834 C7.79010773,-0.273393278 9.58113339,-0.273393278 10.6854925,0.820179834 L12.5,2.61580857 L14.3145075,0.820179834 C15.4195782,-0.273393278 17.2106038,-0.273393278 18.3149629,0.820179834 L24.171197,6.61548357 C25.2762677,7.70905669 25.2762677,9.48144788 24.171197,10.5743168 L22.5488138,12.1798202 C21.4437432,13.2726891 19.6527175,13.2726891 18.5483584,12.1798202 L16.5246488,10.177166 L14.5009393,12.1798202 C13.3958686,13.2733933 11.604843,13.2733933 10.5004839,12.1798202 L8.4767743,10.177166 L6.45306474,12.1798202 C5.34799408,13.2733933 3.55696842,13.2733933 2.45260933,12.1798202 L0.830226137,10.5743168 L0.828802994,10.575021 Z" id="Path" fill="#FFFFFF"></path>
                    <path d="M16.5246488,10.177166 L20.1472597,6.59224603 C21.2523304,5.49867291 23.0433561,5.49867291 24.1477151,6.59224603 L24.171197,6.61548357 C25.2762677,7.70905669 25.2762677,9.48144788 24.171197,10.5743168 L22.5488138,12.1798202 C21.4437432,13.2726891 19.6527175,13.2726891 18.5483584,12.1798202 L16.5246488,10.177166 L16.5246488,10.177166 Z" id="Path" fill="url(#linearGradient-3)" style="mix-blend-mode: multiply;"></path>
                    <path d="M4.85345183,6.59224603 C3.74838117,5.49867291 1.95735552,5.49867291 0.852996428,6.59224603 L0.829514566,6.61548357 C-0.275556093,7.70905669 -0.275556093,9.48144788 0.829514566,10.5743168 L2.45189776,12.1798202 C3.55696842,13.2726891 5.34799408,13.2726891 6.45235317,12.1798202 L8.47606273,10.177166 L4.85345183,6.59224603 Z" id="Path" fill="url(#linearGradient-4)" style="mix-blend-mode: multiply;"></path>
                </g>
                <text font-family="SFProRounded-Semibold, SF Pro Rounded" font-size="15" font-weight="500" fill="#FFFFFF">
                    <tspan x="49" y="25">Explore Minego</tspan>
                </text>
            </g>
        </g>
    </g>
</svg>